<svg width="414" height="255" viewBox="0 0 414 255" fill="none" xmlns="http://www.w3.org/2000/svg">
<path d="M40.716 202.84H38.016V230.92H40.716V232H27.216V230.92H29.916V204.838L19.224 232.54H17.982L5.994 204.082V230.92H10.314V232H1.674V230.92H4.914V202.84H1.62V201.76H13.662L22.086 222.01L29.916 201.76H40.716V202.84ZM73.3957 230.92C73.0357 231.28 72.3517 231.604 71.3437 231.892C70.3357 232.144 69.1657 232.27 67.8337 232.27C64.8817 232.27 63.0277 231.388 62.2717 229.624C60.4717 231.496 57.7177 232.432 54.0097 232.432C52.0297 232.432 50.3917 231.982 49.0957 231.082C47.8357 230.146 47.2057 228.778 47.2057 226.978C47.2057 224.566 48.1417 222.712 50.0137 221.416C51.8857 220.084 55.1617 219.148 59.8417 218.608L62.0017 218.338V215.692C62.0017 212.56 61.7677 210.454 61.2997 209.374C60.8317 208.294 59.8957 207.754 58.4917 207.754C57.1237 207.754 56.2417 207.952 55.8457 208.348C55.4497 208.708 55.3057 209.14 55.4137 209.644C55.5217 210.112 55.7017 210.742 55.9537 211.534C56.2057 212.326 56.3317 212.956 56.3317 213.424C56.3317 214.54 55.9357 215.494 55.1437 216.286C54.3877 217.042 53.4517 217.42 52.3357 217.42C51.2557 217.42 50.3197 217.042 49.5277 216.286C48.7357 215.494 48.3397 214.54 48.3397 213.424C48.3397 211.588 49.2757 210.022 51.1477 208.726C53.0557 207.394 55.8817 206.728 59.6257 206.728C63.4057 206.728 66.0877 207.466 67.6717 208.942C69.2917 210.418 70.1017 213.028 70.1017 216.772V226.492C70.1017 228.4 70.3357 229.606 70.8037 230.11C71.2717 230.578 72.1357 230.668 73.3957 230.38V230.92ZM54.7117 225.898C54.8917 227.266 55.3957 228.328 56.2237 229.084C57.0517 229.804 58.0057 230.164 59.0857 230.164C60.2017 230.164 61.1737 229.624 62.0017 228.544V219.364L60.0577 219.634C58.4017 219.85 57.0517 220.48 56.0077 221.524C54.9997 222.568 54.5677 224.026 54.7117 225.898ZM92.8315 232H79.3315V230.92H82.0315V208.24H79.3315V207.16H90.1315V213.586C90.4555 211.822 91.0315 210.382 91.8595 209.266C92.7235 208.15 93.6595 207.412 94.6675 207.052C95.7115 206.692 96.7015 206.512 97.6375 206.512C98.6095 206.512 99.5275 206.692 100.391 207.052C101.291 207.376 101.957 208.06 102.389 209.104C102.821 210.112 102.839 211.138 102.443 212.182C102.047 213.19 101.345 213.91 100.337 214.342C99.3655 214.774 98.4655 214.828 97.6375 214.504C96.8095 214.18 96.2155 213.748 95.8555 213.208C95.4955 212.632 95.2435 212.092 95.0995 211.588C94.7395 210.256 94.2535 209.59 93.6415 209.59C92.9575 209.59 92.2015 210.778 91.3735 213.154C90.5455 215.494 90.1315 217.978 90.1315 220.606V230.92H92.8315V232ZM106.515 208.24V207.16H121.095V208.24H118.233L124.065 221.308L127.575 212.506L125.793 208.24H123.795V207.16H137.295V208.24H134.919L140.751 221.308L145.773 208.24H141.453V207.16H150.255V208.24H147.015L137.889 232H136.755L128.223 214.126L121.149 232H120.015L109.053 208.24H106.515ZM181.849 230.92C181.489 231.28 180.805 231.604 179.797 231.892C178.789 232.144 177.619 232.27 176.287 232.27C173.335 232.27 171.481 231.388 170.725 229.624C168.925 231.496 166.171 232.432 162.463 232.432C160.483 232.432 158.845 231.982 157.549 231.082C156.289 230.146 155.659 228.778 155.659 226.978C155.659 224.566 156.595 222.712 158.467 221.416C160.339 220.084 163.615 219.148 168.295 218.608L170.455 218.338V215.692C170.455 212.56 170.221 210.454 169.753 209.374C169.285 208.294 168.349 207.754 166.945 207.754C165.577 207.754 164.695 207.952 164.299 208.348C163.903 208.708 163.759 209.14 163.867 209.644C163.975 210.112 164.155 210.742 164.407 211.534C164.659 212.326 164.785 212.956 164.785 213.424C164.785 214.54 164.389 215.494 163.597 216.286C162.841 217.042 161.905 217.42 160.789 217.42C159.709 217.42 158.773 217.042 157.981 216.286C157.189 215.494 156.793 214.54 156.793 213.424C156.793 211.588 157.729 210.022 159.601 208.726C161.509 207.394 164.335 206.728 168.079 206.728C171.859 206.728 174.541 207.466 176.125 208.942C177.745 210.418 178.555 213.028 178.555 216.772V226.492C178.555 228.4 178.789 229.606 179.257 230.11C179.725 230.578 180.589 230.668 181.849 230.38V230.92ZM163.165 225.898C163.345 227.266 163.849 228.328 164.677 229.084C165.505 229.804 166.459 230.164 167.539 230.164C168.655 230.164 169.627 229.624 170.455 228.544V219.364L168.511 219.634C166.855 219.85 165.505 220.48 164.461 221.524C163.453 222.568 163.021 224.026 163.165 225.898Z" fill="white"/>
<path d="M228.493 210.94C228.493 207.736 227.953 205.594 226.873 204.514C225.829 203.398 223.849 202.84 220.933 202.84H219.313V230.92H223.093V232H207.433V230.92H211.213V202.84H209.593C206.713 202.84 204.733 203.398 203.653 204.514C202.609 205.594 202.087 207.736 202.087 210.94H201.007V201.76H229.573V210.94H228.493ZM249.031 232H235.531V230.92H238.231V208.24H235.531V207.16H246.331V213.586C246.655 211.822 247.231 210.382 248.059 209.266C248.923 208.15 249.859 207.412 250.867 207.052C251.911 206.692 252.901 206.512 253.837 206.512C254.809 206.512 255.727 206.692 256.591 207.052C257.491 207.376 258.157 208.06 258.589 209.104C259.021 210.112 259.039 211.138 258.643 212.182C258.247 213.19 257.545 213.91 256.537 214.342C255.565 214.774 254.665 214.828 253.837 214.504C253.009 214.18 252.415 213.748 252.055 213.208C251.695 212.632 251.443 212.092 251.299 211.588C250.939 210.256 250.453 209.59 249.841 209.59C249.157 209.59 248.401 210.778 247.573 213.154C246.745 215.494 246.331 217.978 246.331 220.606V230.92H249.031V232ZM290.524 230.92C290.164 231.28 289.48 231.604 288.472 231.892C287.464 232.144 286.294 232.27 284.962 232.27C282.01 232.27 280.156 231.388 279.4 229.624C277.6 231.496 274.846 232.432 271.138 232.432C269.158 232.432 267.52 231.982 266.224 231.082C264.964 230.146 264.334 228.778 264.334 226.978C264.334 224.566 265.27 222.712 267.142 221.416C269.014 220.084 272.29 219.148 276.97 218.608L279.13 218.338V215.692C279.13 212.56 278.896 210.454 278.428 209.374C277.96 208.294 277.024 207.754 275.62 207.754C274.252 207.754 273.37 207.952 272.974 208.348C272.578 208.708 272.434 209.14 272.542 209.644C272.65 210.112 272.83 210.742 273.082 211.534C273.334 212.326 273.46 212.956 273.46 213.424C273.46 214.54 273.064 215.494 272.272 216.286C271.516 217.042 270.58 217.42 269.464 217.42C268.384 217.42 267.448 217.042 266.656 216.286C265.864 215.494 265.468 214.54 265.468 213.424C265.468 211.588 266.404 210.022 268.276 208.726C270.184 207.394 273.01 206.728 276.754 206.728C280.534 206.728 283.216 207.466 284.8 208.942C286.42 210.418 287.23 213.028 287.23 216.772V226.492C287.23 228.4 287.464 229.606 287.932 230.11C288.4 230.578 289.264 230.668 290.524 230.38V230.92ZM271.84 225.898C272.02 227.266 272.524 228.328 273.352 229.084C274.18 229.804 275.134 230.164 276.214 230.164C277.33 230.164 278.302 229.624 279.13 228.544V219.364L277.186 219.634C275.53 219.85 274.18 220.48 273.136 221.524C272.128 222.568 271.696 224.026 271.84 225.898ZM306.666 232.648C303.75 232.648 301.23 231.496 299.106 229.192C296.982 226.888 295.92 223.63 295.92 219.418C295.92 215.206 296.964 211.912 299.052 209.536C301.14 207.16 303.678 205.972 306.666 205.972C308.142 205.972 309.528 206.278 310.824 206.89C312.12 207.502 313.056 208.42 313.632 209.644V196.9H310.932V195.82H321.732V230.92H324.432V232H313.632V229.516C312.66 231.604 310.338 232.648 306.666 232.648ZM313.632 220.174V211.264C312.66 209.32 311.382 208.348 309.798 208.348C308.25 208.348 306.918 209.248 305.802 211.048C304.686 212.848 304.128 215.71 304.128 219.634C304.128 223.522 304.704 226.366 305.856 228.166C307.008 229.966 308.394 230.74 310.014 230.488C310.914 230.344 311.598 230.056 312.066 229.624C313.11 228.616 313.632 225.466 313.632 220.174ZM354.774 221.2H338.466C338.826 227.536 341.292 230.704 345.864 230.704C347.088 230.704 348.474 230.416 350.022 229.84C351.606 229.264 352.758 228.454 353.478 227.41L354.234 227.95C353.442 229.282 352.092 230.38 350.184 231.244C348.276 232.108 346.368 232.54 344.46 232.54C342.588 232.54 340.896 232.36 339.384 232C337.872 231.604 336.396 230.956 334.956 230.056C333.516 229.156 332.382 227.806 331.554 226.006C330.762 224.206 330.366 222.028 330.366 219.472C330.366 215.116 331.572 211.894 333.984 209.806C336.396 207.682 339.312 206.62 342.732 206.62C346.188 206.62 349.05 207.772 351.318 210.076C353.622 212.38 354.774 216.088 354.774 221.2ZM338.412 220.12H347.214C347.214 216.808 346.854 213.91 346.134 211.426C345.45 208.942 344.334 207.7 342.786 207.7C341.238 207.7 340.122 208.906 339.438 211.318C338.754 213.694 338.412 216.43 338.412 219.526V220.12ZM374.897 232H361.397V230.92H364.097V208.24H361.397V207.16H372.197V213.586C372.521 211.822 373.097 210.382 373.925 209.266C374.789 208.15 375.725 207.412 376.733 207.052C377.777 206.692 378.767 206.512 379.703 206.512C380.675 206.512 381.593 206.692 382.457 207.052C383.357 207.376 384.023 208.06 384.455 209.104C384.887 210.112 384.905 211.138 384.509 212.182C384.113 213.19 383.411 213.91 382.403 214.342C381.431 214.774 380.531 214.828 379.703 214.504C378.875 214.18 378.281 213.748 377.921 213.208C377.561 212.632 377.309 212.092 377.165 211.588C376.805 210.256 376.319 209.59 375.707 209.59C375.023 209.59 374.267 210.778 373.439 213.154C372.611 215.494 372.197 217.978 372.197 220.606V230.92H374.897V232ZM402.351 231.568C406.095 231.568 407.967 230.542 407.967 228.49C407.967 227.338 407.319 226.402 406.023 225.682C404.727 224.926 403.161 224.314 401.325 223.846C399.489 223.378 397.671 222.838 395.871 222.226C394.107 221.614 392.631 220.642 391.443 219.31C390.291 217.978 389.823 216.232 390.039 214.072C390.255 211.912 391.353 210.13 393.333 208.726C395.349 207.322 397.815 206.62 400.731 206.62C403.683 206.62 406.059 207.088 407.859 208.024C409.659 208.96 410.667 210.22 410.883 211.804C411.027 212.776 410.865 213.676 410.397 214.504C409.965 215.332 409.227 215.764 408.183 215.8C407.175 215.836 406.329 215.566 405.645 214.99C404.997 214.414 404.691 213.748 404.727 212.992C404.763 212.236 405.051 211.57 405.591 210.994C406.131 210.382 406.401 209.896 406.401 209.536C406.401 208.924 405.807 208.474 404.619 208.186C403.467 207.862 402.117 207.7 400.569 207.7C399.057 207.7 397.815 208.042 396.843 208.726C395.871 209.41 395.385 210.256 395.385 211.264C395.385 212.272 395.979 213.136 397.167 213.856C398.391 214.576 399.867 215.17 401.595 215.638C403.323 216.07 405.033 216.574 406.725 217.15C408.453 217.69 409.911 218.572 411.099 219.796C412.323 221.02 412.935 222.568 412.935 224.44C412.935 226.924 412.053 228.922 410.289 230.434C408.525 231.91 405.861 232.648 402.297 232.648C398.733 232.648 395.835 232.108 393.603 231.028C391.407 229.948 390.201 228.562 389.985 226.87C389.841 225.898 390.003 224.998 390.471 224.17C390.939 223.342 391.677 222.91 392.685 222.874C393.693 222.838 394.521 223.108 395.169 223.684C395.853 224.26 396.177 224.926 396.141 225.682C396.105 226.438 395.817 227.122 395.277 227.734C394.737 228.31 394.467 228.778 394.467 229.138C394.467 229.858 395.295 230.452 396.951 230.92C398.643 231.352 400.443 231.568 402.351 231.568Z" fill="#F7C022"/>
<path d="M103 52V162.5C103 163.605 103.895 164.5 105 164.5H138C139.105 164.5 140 163.605 140 162.5V126.199C140 124.212 142.583 123.441 143.673 125.102L168.908 163.597C169.277 164.16 169.906 164.5 170.58 164.5H223.923C224.595 164.5 225.223 164.162 225.593 163.6L249.33 127.571C250.422 125.914 253 126.687 253 128.671V162.5C253 163.605 253.895 164.5 255 164.5H288.5C289.605 164.5 290.5 163.605 290.5 162.5V52C290.5 50.8954 289.605 50 288.5 50H254.081C253.406 50 252.777 50.3399 252.408 50.9039L197.688 134.424C196.894 135.635 195.117 135.628 194.333 134.41L140.591 50.9175C140.222 50.3456 139.589 50 138.909 50H105C103.895 50 103 50.8954 103 52Z" fill="#F7C022"/>
<path d="M103 14H95V23.5H103V14Z" fill="white" stroke="black"/>
<path d="M85 27.5V8H96V27.5H85Z" fill="white"/>
<path d="M295 13.5H287V23H295V13.5Z" fill="white" stroke="black"/>
<path d="M295 27.5V8H306V27.5H295Z" fill="white"/>
<path d="M103 2V35C103 36.1046 103.895 37 105 37H147.921C148.595 37 149.223 37.3387 149.593 37.9012L195.329 107.459C196.119 108.66 197.881 108.66 198.671 107.459L244.407 37.9012C244.777 37.3387 245.405 37 246.079 37H288.5C289.605 37 290.5 36.1046 290.5 35V2C290.5 0.895432 289.605 0 288.5 0H105C103.895 0 103 0.895432 103 2Z" fill="#2200F1"/>
<circle cx="123" cy="97" r="9" fill="white"/>
<circle cx="273" cy="97" r="9" fill="white"/>
<circle cx="123" cy="135" r="9" fill="white"/>
<circle cx="273" cy="135" r="9" fill="white"/>
</svg>
