<svg width="221" height="165" viewBox="0 0 221 165" fill="none" xmlns="http://www.w3.org/2000/svg">
<path d="M18 52V162.5C18 163.605 18.8954 164.5 20 164.5H53C54.1046 164.5 55 163.605 55 162.5V126.199C55 124.212 57.5834 123.441 58.6726 125.102L83.9077 163.597C84.2773 164.16 84.9061 164.5 85.5803 164.5H138.923C139.595 164.5 140.223 164.162 140.593 163.6L164.33 127.571C165.422 125.914 168 126.687 168 128.671V162.5C168 163.605 168.895 164.5 170 164.5H203.5C204.605 164.5 205.5 163.605 205.5 162.5V52C205.5 50.8954 204.605 50 203.5 50H169.081C168.406 50 167.777 50.3399 167.408 50.9039L112.688 134.424C111.894 135.635 110.117 135.628 109.333 134.41L55.5906 50.9175C55.2225 50.3456 54.589 50 53.9089 50H20C18.8954 50 18 50.8954 18 52Z" fill="#F7C022"/>
<path d="M18 14H10V23.5H18V14Z" fill="white" stroke="black"/>
<path d="M0 27.5V8H11V27.5H0Z" fill="#031635"/>
<path d="M210 13.5H202V23H210V13.5Z" fill="white" stroke="black"/>
<path d="M210 27.5V8H221V27.5H210Z" fill="#031635"/>
<path d="M18 2V35C18 36.1046 18.8954 37 20 37H62.9215C63.5947 37 64.2227 37.3387 64.5926 37.9012L110.329 107.459C111.119 108.66 112.881 108.66 113.671 107.459L159.407 37.9012C159.777 37.3387 160.405 37 161.079 37H203.5C204.605 37 205.5 36.1046 205.5 35V2C205.5 0.895432 204.605 0 203.5 0H20C18.8954 0 18 0.895432 18 2Z" fill="#2200F1"/>
<circle cx="38" cy="97" r="9" fill="white"/>
<circle cx="188" cy="97" r="9" fill="white"/>
<circle cx="38" cy="135" r="9" fill="white"/>
<circle cx="188" cy="135" r="9" fill="white"/>
</svg>
